<svg version="1.2" baseProfile="tiny-ps" xmlns="http://www.w3.org/2000/svg" viewBox="0 0 822 820" width="822" height="820">
	<title>linkedIn-svg</title>
	<style>
		tspan { white-space:pre }
		.shp0 { fill: #ffffff } 
		.shp1 { fill: #4687e8; transform: scale(0.9) translate(70px 100px) } 
	</style>
	<path id="Layer 1" class="shp0" d="M411 820.05C184.24 820.05 0.95 636.76 0.95 410C0.95 183.24 184.24 -0.05 411 -0.05C637.76 -0.05 821.05 183.24 821.05 410C821.05 636.76 637.76 820.05 411 820.05Z" />
	<g id="Folder 1">
		<path id="Layer" fill-rule="evenodd" class="shp1" d="M633.5 527.2C595.6 603.8 491.4 602 416.8 602C341 602 230.6 604.7 191.2 527.2C176.6 498.2 171 464.1 171 432.2C171 390.3 184.9 350.7 212.5 318.6C207.3 302.8 204.8 286.2 204.8 269.8C204.8 248.3 209.7 237.5 219.4 218C264.7 218 293.7 227 328.2 254C357.2 247.1 387 244 416.9 244C443.9 244 471.1 246.9 497.3 253.2C531.3 226.5 560.3 218 605.1 218C614.9 237.5 619.7 248.3 619.7 269.8C619.7 286.2 617.1 302.5 612 318C639.5 350.4 651 390.3 651 432.2C651 464.1 647.8 497.9 633.5 527.2ZM513.2 400.1C494.3 400.1 476.2 403.5 457.2 406.1C442.3 408.4 427.4 409.3 412.1 409.3C396.9 409.3 382 408.4 367 406.1C348.3 403.5 330 400.1 311 400.1C264.2 400.1 237.5 438.8 237.5 482.7C237.5 570.5 317.9 584 387.9 584L436.1 584C506.4 584 586.7 570.6 586.7 482.7C586.7 438.8 560 400.1 513.2 400.1ZM320.4 537.8C294.6 537.8 283.7 503.6 283.7 482.7C283.7 461.8 294.6 427.6 320.4 427.6C346.2 427.6 357.1 461.8 357.1 482.7C357.1 503.6 346.2 537.8 320.4 537.8ZM540.8 482.7C540.8 503.6 529.9 537.8 504.1 537.8C478.3 537.8 467.4 503.6 467.4 482.7C467.4 461.8 478.3 427.6 504.1 427.6C529.9 427.6 540.8 461.8 540.8 482.7Z" />
	</g>
</svg>