<svg version="1.2" baseProfile="tiny-ps" xmlns="http://www.w3.org/2000/svg" viewBox="0 0 822 820" width="822" height="820">
	<title>linkedIn-svg</title>
	<style>
		tspan { white-space:pre }
		.shp0 { fill: #ffffff;}
		.shp1 { fill: #303030; transform: scale(0.9) translate(70px 100px) } 
	</style>
	<path id="Layer 1" class="shp0" d="M411 820.05C184.24 820.05 0.95 636.76 0.95 410C0.95 183.24 184.24 -0.05 411 -0.05C637.76 -0.05 821.05 183.24 821.05 410C821.05 636.76 637.76 820.05 411 820.05Z" />
	<path id="Layer" class="shp1" d="M287.28 634L194.4 634L194.4 334.9L287.28 334.9L287.28 634ZM240.79 294.1C211.09 294.1 187 269.5 187 239.8C187 225.53 192.67 211.85 202.75 201.76C212.84 191.68 226.52 186.01 240.79 186.01C255.06 186.01 268.74 191.68 278.83 201.76C288.91 211.85 294.58 225.53 294.58 239.8C294.58 269.5 270.48 294.1 240.79 294.1ZM634.9 634L542.22 634L542.22 488.4C542.22 453.7 541.52 409.2 493.93 409.2C445.64 409.2 438.24 446.9 438.24 485.9L438.24 634L345.46 634L345.46 334.9L434.54 334.9L434.54 375.7L435.84 375.7C448.24 352.2 478.53 327.4 523.72 327.4C617.72 327.4 635 389.3 635 469.7L635 634L634.9 634Z" />
</svg>