<svg version="1.2" baseProfile="tiny-ps" xmlns="http://www.w3.org/2000/svg" viewBox="0 0 822 820" width="822" height="820">
	<title>linkedIn-svg</title>
	<style>
		tspan { white-space:pre }
		.shp0 { fill: #ffffff } 
		.shp1 { fill: #303030; transform: scale(0.9) translate(70px 100px) } 
	</style>
	<path id="Layer 1" class="shp0" d="M411 820.05C184.24 820.05 0.95 636.76 0.95 410C0.95 183.24 184.24 -0.05 411 -0.05C637.76 -0.05 821.05 183.24 821.05 410C821.05 636.76 637.76 820.05 411 820.05Z" />
	<path id="Layer" class="shp1" d="M614.37 305.63C614.69 310.18 614.69 314.73 614.69 319.28C614.69 458 509.11 617.84 316.14 617.84C256.69 617.84 201.46 600.62 155 570.73C163.45 571.7 171.57 572.03 180.34 572.03C229.39 572.03 274.55 555.46 310.61 527.2C264.48 526.22 225.82 496.01 212.5 454.43C219 455.4 225.5 456.05 232.32 456.05C241.74 456.05 251.16 454.75 259.93 452.48C211.85 442.73 175.79 400.5 175.79 349.49L175.79 348.19C189.76 355.99 206 360.86 223.22 361.51C194.96 342.67 176.44 310.51 176.44 274.12C176.44 254.63 181.64 236.76 190.74 221.17C242.39 284.84 320.04 326.43 407.1 330.97C405.48 323.18 404.5 315.06 404.5 306.93C404.5 249.11 451.28 202 509.44 202C539.65 202 566.94 214.67 586.11 235.14C609.82 230.59 632.56 221.82 652.7 209.8C644.91 234.16 628.34 254.63 606.57 267.62C627.69 265.35 648.16 259.5 667 251.38C652.71 272.17 634.84 290.69 614.37 305.63L614.37 305.63Z" />
</svg>